<svg width="182" height="46" viewBox="0 0 182 46" fill="none" xmlns="http://www.w3.org/2000/svg">
<path d="M1.80663 2.65856L1.75658 2.70518C0.631202 3.84762 0 5.3897 0 6.9966C0 8.60351 0.631202 10.1455 1.75658 11.288L13.4106 22.9902L13.3855 23.0117L5.69605 30.7474C4.57068 31.8898 3.93947 33.4319 3.93947 35.0388C3.93947 36.6457 4.57068 38.1877 5.69605 39.3301L5.74253 39.3804C6.88026 40.5104 8.41596 41.1442 10.0162 41.1442C11.6165 41.1442 13.1522 40.5104 14.29 39.3804L22.0045 31.6232L26.0476 27.5598L26.5302 27.0752L26.5052 27.05C27.4941 25.8075 27.9939 24.2434 27.9096 22.655C27.8252 21.0667 27.1626 19.5648 26.0476 18.4349L10.3433 2.65856C9.20607 1.53178 7.67266 0.900024 6.07499 0.900024C4.47731 0.900024 2.9439 1.53178 1.80663 2.65856Z" fill="#4BE1B5"/>
<path d="M42.188 43.3326L42.2345 43.2859C43.3599 42.1435 43.9911 40.6015 43.9911 38.9946C43.9911 37.3876 43.3599 35.8456 42.2345 34.7031L30.5841 23.0081L30.6056 22.9866L38.3129 15.2474C39.4383 14.1049 40.0695 12.5629 40.0695 10.956C40.0695 9.34908 39.4383 7.807 38.3129 6.66456L38.2629 6.61789C37.128 5.48374 35.5921 4.84705 33.9909 4.84705C32.3898 4.84705 30.8538 5.48374 29.719 6.61789L21.9902 14.393L17.9435 18.4529L17.4609 18.9375L17.4895 18.9662C16.4993 20.208 15.9984 21.772 16.0821 23.3606C16.1659 24.9492 16.8283 26.4514 17.9435 27.5813L33.6406 43.3398C34.7793 44.4689 36.3155 45.1014 37.9158 45.1C39.5161 45.0987 41.0513 44.4636 42.188 43.3326Z" fill="#388EFF"/>
<path d="M22.0045 14.3607L17.9578 18.4206L17.4752 18.9052L17.5038 18.9339C16.5136 20.1757 16.0127 21.7397 16.0964 23.3283C16.1801 24.9169 16.8426 26.4191 17.9578 27.549L21.9902 31.6232L26.0333 27.5598L26.5159 27.0751L26.4909 27.05C27.4798 25.8075 27.9796 24.2434 27.8953 22.655C27.8109 21.0667 27.1483 19.5648 26.0333 18.4349L22.0045 14.3607Z" fill="#23195F"/>
<path d="M70.5043 39.8543H79.2126L67.9912 25.7291C71.1656 24.6163 74.1971 22.1395 74.1971 17.3043C74.1971 11.6255 70.0145 7.49023 64.4449 7.49023H51.4539V7.61586C51.4502 7.63603 51.4502 7.65673 51.4539 7.6769V26.2927C51.4505 26.3141 51.4505 26.3359 51.4539 26.3573V39.8543H58.6608V26.483H59.7797L70.5043 39.8543ZM58.6644 14.2136H63.9337C64.7314 14.2409 65.4873 14.5783 66.042 15.1546C66.5967 15.7309 66.9068 16.501 66.9068 17.3025C66.9068 18.1039 66.5967 18.8741 66.042 19.4504C65.4873 20.0267 64.7314 20.364 63.9337 20.3913H58.6644V14.2136Z" fill="white"/>
<path d="M88.8361 16.6653C86.5091 16.6929 84.2421 17.4111 82.3205 18.7294C80.3989 20.0477 78.9086 21.9073 78.0371 24.0741C77.1655 26.2409 76.9517 28.6182 77.4225 30.9067C77.8933 33.1953 79.0277 35.2929 80.683 36.9356C82.3382 38.5782 84.4404 39.6926 86.7249 40.1384C89.0094 40.5843 91.3742 40.3417 93.5217 39.4411C95.6692 38.5406 97.5035 37.0224 98.7937 35.0775C100.084 33.1326 100.772 30.8479 100.773 28.5111C100.765 26.9459 100.449 25.3977 99.845 23.955C99.2406 22.5123 98.3589 21.2034 97.2502 20.1031C96.1416 19.0029 94.8278 18.133 93.384 17.5431C91.9403 16.9532 90.3948 16.6549 88.8361 16.6653ZM88.8361 33.9422C86.0764 33.9422 83.8314 31.5048 83.8314 28.4931C83.8314 25.4815 86.0692 23.0441 88.8361 23.0441C91.6031 23.0441 93.8409 25.485 93.8409 28.4931C93.8409 31.5013 91.5959 33.9422 88.8361 33.9422Z" fill="white"/>
<path d="M118.725 30.9591C117.91 32.8293 116.223 34.1898 114.246 34.1898C110.889 34.1898 109.134 31.5084 109.134 28.5003C109.134 25.4922 110.864 22.8179 114.246 22.8179C116.416 22.8179 118.021 24.1676 118.772 26.0234H125.943C124.892 20.6785 120.456 16.6688 114.246 16.6688C106.85 16.6688 102.31 21.9671 102.31 28.5146C102.31 35.0621 107.168 40.3604 114.246 40.3604C120.427 40.3604 124.896 36.34 125.947 30.9879L118.725 30.9591Z" fill="white"/>
<path d="M170.017 23.4711L181.289 7.49013H172.92L165.609 17.7744L158.324 7.49013H149.905L161.227 23.4999L150.509 37.9984L141.744 27.391L150.009 17.0852H141.894L135.252 25.1942V5.65942H128.442V39.8542H135.252V29.7817L143.649 39.8542L157.745 39.7752L165.642 29.1356L173.503 39.7752H182L170.017 23.4711Z" fill="white"/>
</svg>
