<svg width="20" height="30" viewBox="0 0 20 30" fill="none" xmlns="http://www.w3.org/2000/svg">
<path d="M9.69433 0.257568L9.49353 0.932787L9.49353 20.517L9.69433 20.7158L18.8735 15.3413L9.69433 0.257568Z" fill="#B8FBF6"/>
<path d="M9.69442 20.7987L9.42139 20.5469L9.42428 0.912691L9.67131 0.081543L19.031 15.334L18.9111 15.4041L9.69442 20.7987ZM9.56585 20.4883L9.70598 20.6256L18.8317 15.284L9.71609 0.433457L9.5644 0.942732L9.5644 20.4869L9.56585 20.4883Z" fill="#3F4AC3"/>
<path d="M9.69451 0.257568L0.513916 15.3413L9.69451 20.7158L9.69451 11.2098V0.257568Z" fill="#EECAC0"/>
<path d="M9.76674 20.7558L9.65839 20.7773L0.356445 15.3326L9.76674 0L9.76674 20.7558ZM0.555804 15.284L9.62083 20.5899L9.62083 0.514997L0.555804 15.284Z" fill="#3F4AC3"/>
<path d="M9.69451 29.8769V22.4366L0.513916 17.0649L9.69451 29.8769Z" fill="#EECAC0"/>
<path d="M9.76671 29.8986L9.69448 30.0001L0.258179 16.8334L9.76671 22.3953V29.8986ZM0.768132 17.2983L9.62224 29.6525V22.4783L0.768132 17.2983Z" fill="#3F4AC3"/>
<path d="M9.69446 29.8769V22.4366L18.8751 17.0649L9.69446 29.8769Z" fill="#C9B3F4"/>
<path d="M9.62238 22.3953L19.1309 16.8334L9.69461 30.0001L9.61804 29.8943L9.62238 22.3953ZM9.76684 22.4769V29.6511L18.621 17.2969L9.76684 22.4769Z" fill="#3F4AC3"/>
<path d="M9.69446 20.7157L18.8736 15.3411L9.69446 11.2097V20.7157Z" fill="#C9B3F4"/>
<path d="M9.62231 20.7545V11.0983L19.0312 15.3327L9.69455 20.7974L9.62231 20.753V20.7545ZM9.76678 11.3214V20.5914L18.7191 15.3513L9.76678 11.3214Z" fill="#3F4AC3"/>
<path d="M0.513916 15.3411L9.69451 20.7157V11.2097L0.513916 15.3411Z" fill="#87A9F0"/>
<path d="M9.76674 20.7559L9.69451 20.7988L9.65695 20.7773L0.356445 15.3327L9.76529 11.0983V20.7559H9.76674ZM0.669929 15.3499L9.62228 20.5899V11.32L0.669929 15.3499Z" fill="#3F4AC3"/>
</svg>
