<svg width="28" height="28" viewBox="0 0 28 28" fill="none" xmlns="http://www.w3.org/2000/svg">
<path d="M26.425 0H1.53125C0.65625 0 0 0.7 0 1.53125V26.425C0 27.3 0.7 27.9562 1.53125 27.9562H14.9625V17.1063H11.2875V12.8625H14.9187V9.75624C14.9187 6.125 17.1062 4.15625 20.3437 4.15625C21.875 4.15625 23.2312 4.2875 23.625 4.33125V8.09375H21.3937C19.6437 8.09375 19.2937 8.925 19.2937 10.15V12.8625H23.4937L22.9687 17.15H19.3375V28H26.4687C27.3437 28 28 27.3 28 26.4687V1.575C28 0.65625 27.3 0 26.425 0Z" fill="white" fill-opacity="0.64"/>
</svg>
