<svg width="24" height="24" viewBox="0 0 24 24" fill="none" xmlns="http://www.w3.org/2000/svg">
<path d="M2.88449 5.77882C4.47754 5.77882 5.76897 4.48519 5.76897 2.88941C5.76897 1.29363 4.47754 0 2.88449 0C1.29143 0 0 1.29363 0 2.88941C0 4.48519 1.29143 5.77882 2.88449 5.77882Z" fill="currentcolor"/>
<path d="M8.49264 7.96819V23.9986H13.4614V16.0712C13.4614 13.9794 13.8542 11.9537 16.4434 11.9537C18.997 11.9537 19.0287 14.3452 19.0287 16.2033V23.9999H24V15.2089C24 10.8906 23.072 7.57202 18.0333 7.57202C15.6142 7.57202 13.9927 8.90184 13.3296 10.1603H13.2623V7.96819H8.49264ZM0.395508 7.96819H5.37217V23.9986H0.395508V7.96819Z" fill="currentcolor"/>
</svg>
