<svg width="24" height="20" viewBox="0 0 24 20" fill="none" xmlns="http://www.w3.org/2000/svg">
<path d="M22.0844 2.35024L24 0.422258V0H17.3656L12.6375 12.3863L7.25937 0H0.303125V0.422258L2.54063 3.25696C2.75938 3.46645 2.87188 3.77414 2.84375 4.08183V15.2209C2.9125 15.6236 2.79062 16.0327 2.52187 16.3241L0 19.5417V19.9574H7.14375V19.5352L4.625 16.3273C4.49005 16.1838 4.38854 16.0096 4.32837 15.8183C4.26821 15.6269 4.25101 15.4237 4.27812 15.2242V5.58756L10.55 19.964H11.2781L16.6719 5.58756V17.0409C16.6719 17.3421 16.6719 17.4043 16.4844 17.6039L14.5438 19.5777V20H23.9562V19.5777L22.0844 17.6498C21.9219 17.5188 21.8375 17.2995 21.8719 17.0867V2.91326C21.8557 2.80807 21.8669 2.70026 21.9043 2.60117C21.9417 2.50209 22.0039 2.41541 22.0844 2.35024Z" fill="currentcolor"/>
</svg>
