<svg width="48" height="48" viewBox="0 0 48 48" fill="none"
    xmlns="http://www.w3.org/2000/svg">
    <path d="M7.47845 7.43229L7.43749 7.47026C6.51654 8.40076 6 9.65675 6 10.9655C6 12.2743 6.51654 13.5303 7.43749 14.4608L16.9745 23.992L16.954 24.0095L10.6614 30.3101C9.74041 31.2406 9.22386 32.4965 9.22386 33.8053C9.22386 35.1141 9.74041 36.3701 10.6614 37.3006L10.6994 37.3415C11.6305 38.2619 12.8872 38.7781 14.1968 38.7781C15.5064 38.7781 16.7631 38.2619 17.6942 37.3415L24.0073 31.0234L27.316 27.7138L27.711 27.3191L27.6905 27.2987C28.4998 26.2866 28.9088 25.0127 28.8398 23.719C28.7707 22.4253 28.2285 21.2021 27.316 20.2818L14.4645 7.43229C13.5338 6.51455 12.2789 6 10.9715 6C9.664 6 8.40914 6.51455 7.47845 7.43229Z" fill="#4BE1B5"/>
    <path d="M40.5244 40.5605L40.5625 40.5225C41.4834 39.592 42 38.3361 42 37.0273C42 35.7185 41.4834 34.4625 40.5625 33.532L31.0284 24.0067L31.0459 23.9891L37.3532 17.6857C38.2742 16.7552 38.7907 15.4992 38.7907 14.1904C38.7907 12.8817 38.2742 11.6257 37.3532 10.6952L37.3123 10.6572C36.3836 9.73341 35.1266 9.21484 33.8163 9.21484C32.5061 9.21484 31.2491 9.73341 30.3204 10.6572L23.9956 16.9899L20.6839 20.2966L20.289 20.6912L20.3124 20.7146C19.5021 21.726 19.0922 22.9999 19.1607 24.2938C19.2292 25.5876 19.7713 26.8111 20.6839 27.7314L33.5296 40.5664C34.4615 41.486 35.7186 42.0012 37.0282 42.0001C38.3378 41.999 39.5941 41.4817 40.5244 40.5605Z" fill="#388EFF"/>
    <path d="M24.0073 16.9634L20.6956 20.27L20.3007 20.6647L20.3241 20.6881C19.5138 21.6996 19.1039 22.9734 19.1724 24.2673C19.2409 25.5611 19.7831 26.7847 20.6956 27.705L23.9956 31.0233L27.3043 27.7137L27.6992 27.319L27.6787 27.2986C28.488 26.2865 28.897 25.0126 28.828 23.7189C28.759 22.4252 28.2167 21.202 27.3043 20.2817L24.0073 16.9634Z" fill="#23195F"/>
</svg>
